<?xml version="1.0" encoding="UTF-8" standalone="no"?>
<!-- Created with Inkscape (http://www.inkscape.org/) -->

<svg
   xmlns:dc="http://purl.org/dc/elements/1.1/"
   xmlns:cc="http://creativecommons.org/ns#"
   xmlns:rdf="http://www.w3.org/1999/02/22-rdf-syntax-ns#"
   xmlns:svg="http://www.w3.org/2000/svg"
   xmlns="http://www.w3.org/2000/svg"
   xmlns:sodipodi="http://sodipodi.sourceforge.net/DTD/sodipodi-0.dtd"
   xmlns:inkscape="http://www.inkscape.org/namespaces/inkscape"
   width="200"
   height="170"
   viewBox="0 0 200 170"
   id="svg4156"
   version="1.1"
   inkscape:version="0.91 r13725"
   sodipodi:docname="logo_h4service.svg">
  <defs
     id="defs4158" />
  <sodipodi:namedview
     id="base"
     pagecolor="#ffffff"
     bordercolor="#666666"
     borderopacity="1.0"
     inkscape:pageopacity="0.0"
     inkscape:pageshadow="2"
     inkscape:zoom="1.4"
     inkscape:cx="18.865337"
     inkscape:cy="4.0072665"
     inkscape:document-units="px"
     inkscape:current-layer="layer1"
     showgrid="false"
     units="px"
     inkscape:window-width="1536"
     inkscape:window-height="801"
     inkscape:window-x="-8"
     inkscape:window-y="-8"
     inkscape:window-maximized="1" />
  <metadata
     id="metadata4161">
    <rdf:RDF>
      <cc:Work
         rdf:about="">
        <dc:format>image/svg+xml</dc:format>
        <dc:type
           rdf:resource="http://purl.org/dc/dcmitype/StillImage" />
        <dc:title></dc:title>
      </cc:Work>
    </rdf:RDF>
  </metadata>
  <g
     inkscape:label="Layer 1"
     inkscape:groupmode="layer"
     id="layer1"
     transform="translate(0,-882.36219)">
    <g
       id="g4516"
       transform="matrix(0.95640145,0,0,0.95640145,-255.82652,180.47538)">
      <path
         style="fill:#0056b8;fill-opacity:1;fill-rule:evenodd;stroke:none"
         d="m 328.41792,775.45851 c 10.27068,0.41407 17.29821,1.05468 30.3102,7.65183 14.83852,-8.08495 29.77925,-7.6228 40.30104,-7.79784 -0.83171,3.62265 -1.7928,7.98495 -2.36508,12.17074 -16.45828,0.0656 -30.27534,2.01746 -39.8001,8.10121 -7.84899,-4.75613 -17.38815,-7.31732 -31.77678,-8.08237 0.79736,-4.13945 2.30004,-8.74859 3.33072,-12.04357 z"
         id="rect3000-3-7-1-4-9-2-4-7-4-4-4-3-7"
         inkscape:connector-curvature="0"
         sodipodi:nodetypes="ccccccc" />
      <path
         style="fill:#0056b8;fill-opacity:1;fill-rule:evenodd;stroke:none"
         d="m 335.19115,759.48681 c 8.74331,0.84643 16.95875,0.3909 28.40192,6.48213 12.9318,-6.42279 25.18032,-8.10254 41.32872,-8.57934 -1.59215,3.7498 -2.7982,6.74908 -4.13477,11.18451 -18.06782,0.0642 -28.99455,2.3336 -40.75939,8.54242 -8.20681,-5.44174 -18.15327,-7.06124 -29.78655,-7.4987 1.89965,-4.78272 3.53897,-7.81758 4.95007,-10.13102 z"
         id="rect3000-3-7-1-4-9-2-5-0-7-09-2-1-5-6"
         inkscape:connector-curvature="0"
         sodipodi:nodetypes="ccccccc" />
      <path
         style="fill:#0056b8;fill-opacity:1;fill-rule:evenodd;stroke:none"
         d="m 345.17933,747.12807 c 9.39616,0.50849 14.78537,0.76931 22.3353,5.07067 12.99245,-7.18179 35.72961,-11.21027 47.89748,-9.43059 -3.92581,2.51667 -6.78231,7.39081 -7.90946,9.0117 -17.04786,0.12486 -30.83259,3.16119 -42.32082,9.09253 -8.85022,-4.38204 -13.56897,-4.7869 -26.90699,-6.031 2.91251,-4.11362 5.37963,-6.39321 6.90449,-7.71331 z"
         id="rect3000-3-7-1-4-9-2-5-6-9-9-4-3-1-7-9"
         inkscape:connector-curvature="0"
         sodipodi:nodetypes="ccccccc" />
      <path
         style="fill:#0056b8;fill-opacity:1;fill-rule:evenodd;stroke:none"
         d="m 425.06378,741.83685 c -7.85389,-6.70475 -38.29909,-4.01102 -56.23254,6.20967 -5.41994,-2.9329 -11.53843,-3.76328 -19.81233,-4.00559 10.62345,-8.85147 61.13924,-15.64088 76.04487,-2.20408 z"
         id="rect3000-3-7-1-4-9-2-5-6-1-4-3-88-2-3-6-7"
         inkscape:connector-curvature="0"
         sodipodi:nodetypes="cccc" />
      <path
         style="fill:#0056b8;fill-opacity:1;fill-rule:evenodd;stroke:none"
         d="m 326.69857,853.57843 c 9.8413,0.59637 14.60222,2.21999 31.50366,11.69747 16.27038,-7.01463 28.7364,-6.51555 38.97251,-6.65814 0.14715,4.63035 0.49359,8.00971 2.18134,12.65529 -15.50461,0.0663 -27.32158,0.48749 -39.16317,5.90824 -12.25724,-7.29743 -20.25236,-12.91576 -31.32067,-12.93823 -1.43203,-3.45961 -2.14277,-7.02999 -2.17367,-10.66463 z"
         id="rect3000-3-7-1-4-8-17-2-7-5-7-8-5-1-5-0"
         inkscape:connector-curvature="0"
         sodipodi:nodetypes="ccccccc" />
      <path
         style="fill:#0056b8;fill-opacity:1;fill-rule:evenodd;stroke:none"
         d="m 331.39215,868.76568 c 10.86453,0.46577 15.38678,4.79045 31.06171,14.17324 16.10769,-6.94457 28.72685,-5.47476 38.86061,-5.61595 1.01806,4.83331 1.98293,6.55254 4.09373,11.15659 -16.45998,0.0656 -26.61051,-0.77252 -40.48505,4.42789 -13.99523,-8.85349 -25.68498,-16.28191 -30.37582,-15.95165 -0.85712,-1.78834 -2.92659,-4.34652 -3.15518,-8.19012 z"
         id="rect3000-3-7-1-4-8-17-2-7-5-7-5-5-4-9-9-11"
         inkscape:connector-curvature="0"
         sodipodi:nodetypes="ccccccc" />
      <path
         style="fill:#0056b8;fill-opacity:1;fill-rule:evenodd;stroke:none"
         d="m 336.84421,881.00054 c 8.0657,1.3723 15.61091,7.67765 29.88285,15.72031 13.64283,-5.17306 30.38748,-3.49724 40.4199,-3.63696 0.38474,3.22714 1.64904,5.48872 3.67456,8.67706 -15.59039,-0.55198 -27.83223,-1.37545 -40.90212,2.62825 -13.85526,-8.76492 -22.78732,-15.18025 -30.26645,-17.60305 -1.07766,-1.88499 -1.99204,-2.50927 -2.80874,-5.78561 z"
         id="rect3000-3-7-1-4-8-17-2-7-5-7-5-2-7-3-8-7-7"
         inkscape:connector-curvature="0"
         sodipodi:nodetypes="ccccccc" />
      <path
         style="fill:#0056b8;fill-opacity:1;fill-rule:evenodd;stroke:none"
         d="m 341.92899,889.64089 c 5.88953,1.84123 11.68953,6.17978 28.80978,16.63449 24.43969,-5.03247 44.51185,1.48886 48.66705,-2.35171 -4.05199,8.66671 -55.8963,15.25368 -77.47683,-14.28278 z"
         id="rect3000-3-7-1-4-8-17-2-7-5-7-5-2-6-6-1-6-5-5"
         inkscape:connector-curvature="0"
         sodipodi:nodetypes="cccc" />
      <g
         id="text4136-8-8-4-6-2-2-8-7-3-2-0"
         style="font-style:normal;font-variant:normal;font-weight:normal;font-stretch:normal;font-size:60px;line-height:125%;font-family:'Bahnschrift SemiBold';-inkscape-font-specification:'Bahnschrift SemiBold';letter-spacing:-2.44000006px;word-spacing:0px;fill:#455b65;fill-opacity:1;stroke:none"
         transform="matrix(0.66696573,0,0,0.66696573,-12.396012,152.36022)">
        <path
           id="path3263-6-3-5-9"
           style="font-family:'Bahnschrift SemiBold';-inkscape-font-specification:'Bahnschrift SemiBold';letter-spacing:0px;fill:#455b65;fill-opacity:1"
           d="m 443.25201,1028.6328 0,-42.59764 7.14844,0 0,42.59764 z m -23.61328,0 0,-42.59764 7.14844,0 0,42.59764 z m 3.72071,-17.6367 0,-6.8555 24.22851,0 0,6.8555 z"
           inkscape:connector-curvature="0" />
        <path
           id="path3265-1-6-7-7"
           style="font-family:'Bahnschrift SemiBold';-inkscape-font-specification:'Bahnschrift SemiBold';letter-spacing:0px;fill:#455b65;fill-opacity:1"
           d="m 458.95514,1022.0996 0,-6.2988 13.71094,-29.73635 7.61718,0 -13.35937,29.38475 20.00976,0 0,6.6504 z m 17.7832,6.5625 0,-25.0781 6.94336,0 0,25.0781 z"
           inkscape:connector-curvature="0" />
        <path
           id="path3267-8-9-0-58"
           style="font-family:'Bahnschrift SemiBold';-inkscape-font-specification:'Bahnschrift SemiBold';letter-spacing:0px;fill:#455b65;fill-opacity:1"
           d="m 517.92975,1029.0723 c -3.06642,0 -5.9424,-0.4541 -8.62793,-1.3623 -2.68555,-0.9082 -5.05372,-2.2119 -7.10449,-3.9112 l 0,0 3.7207,-5.5957 0,0 c 1.64062,1.3672 3.48632,2.4121 5.53711,3.1348 2.05077,0.7227 4.20897,1.084 6.47461,1.084 2.85154,0 5.06345,-0.5078 6.63574,-1.5235 1.57224,-1.0156 2.35837,-2.4511 2.3584,-4.3066 l 0,-0.029 c -3e-5,-1.4258 -0.39554,-2.5195 -1.18652,-3.2813 -0.79104,-0.7617 -1.83108,-1.3232 -3.12012,-1.6845 -1.28909,-0.3613 -2.69533,-0.6689 -4.21875,-0.9229 -1.62111,-0.2929 -3.26174,-0.6298 -4.92188,-1.0107 -1.66016,-0.3809 -3.18848,-0.9668 -4.58496,-1.7578 -1.39649,-0.791 -2.52442,-1.9385 -3.38379,-3.4424 -0.85938,-1.5039 -1.28906,-3.5254 -1.28906,-6.06446 l 0,-0.0293 c 0,-4.06247 1.34277,-7.20699 4.02832,-9.43359 2.68554,-2.22652 6.47948,-3.3398 11.38184,-3.33985 2.30466,5e-5 4.59958,0.37602 6.88476,1.12793 2.28513,0.752 4.4531,1.86039 6.50391,3.3252 l 0,0 -3.39844,5.77148 0,0 c -3.32034,-2.38277 -6.65041,-3.57418 -9.99023,-3.57422 -2.6758,4e-5 -4.75588,0.4932 -6.24024,1.4795 -1.48438,0.98636 -2.22657,2.37796 -2.22656,4.1748 l 0,0.0293 c -1e-5,1.4844 0.43456,2.60741 1.30371,3.36911 0.86913,0.7618 2.00682,1.3331 3.41309,1.7139 1.40623,0.3809 2.91013,0.7276 4.51172,1.04 1.60154,0.3126 3.19821,0.6934 4.79004,1.1426 1.59177,0.4493 3.04684,1.0987 4.36523,1.9483 1.31833,0.8496 2.36813,2.0117 3.14941,3.4863 0.78122,1.4746 1.17184,3.3936 1.17188,5.7568 l 0,0.059 c -4e-5,4.0039 -1.39164,7.1094 -4.17481,9.3164 -2.78323,2.2071 -6.70412,3.3106 -11.76269,3.3106 z"
           inkscape:connector-curvature="0" />
        <path
           id="path3269-9-3-91-8"
           style="font-family:'Bahnschrift SemiBold';-inkscape-font-specification:'Bahnschrift SemiBold';letter-spacing:0px;fill:#455b65;fill-opacity:1"
           d="m 541.74811,1028.6328 0,-42.59764 7.00195,0 0,42.59764 z m 2.90039,0 0,-6.5625 25.04883,0 0,6.5625 z m 0,-17.8125 0,-6.709 21.82617,0 0,6.709 z m 0,-18.07616 0,-6.70898 25.04883,0 0,6.70898 z"
           inkscape:connector-curvature="0" />
        <path
           id="path3271-2-8-5-90"
           style="font-family:'Bahnschrift SemiBold';-inkscape-font-specification:'Bahnschrift SemiBold';letter-spacing:0px;fill:#455b65;fill-opacity:1"
           d="m 580.50787,1011.0547 0,-6.5625 15.26368,0 c 1.3281,0 2.39255,-0.5469 3.19335,-1.6406 0.80076,-1.0938 1.20115,-2.5391 1.20118,-4.33598 -3e-5,-1.79684 -0.40042,-3.23727 -1.20118,-4.32128 -0.8008,-1.08395 -1.86525,-1.62594 -3.19335,-1.62598 l -15.26368,0 0,-6.5625 15.46875,0 c 2.30467,4e-5 4.32126,0.51762 6.04981,1.55273 1.72848,1.0352 3.06637,2.49028 4.01367,4.36524 0.94723,1.87503 1.42086,4.0723 1.4209,6.59179 -4e-5,2.51958 -0.47367,4.71678 -1.4209,6.59178 -0.9473,1.875 -2.28519,3.335 -4.01367,4.3799 -1.72855,1.0449 -3.74514,1.5674 -6.04981,1.5674 z m -2.90039,17.5781 0,-42.62694 7.29492,0 0,42.62694 z m 23.23242,0 -10.04882,-18.8965 7.26562,-1.3476 11.19141,20.2441 z"
           inkscape:connector-curvature="0" />
        <path
           id="path3273-7-4-2-1"
           style="font-family:'Bahnschrift SemiBold';-inkscape-font-specification:'Bahnschrift SemiBold';letter-spacing:0px;fill:#455b65;fill-opacity:1"
           d="m 625.91803,1028.6328 -14.0332,-42.59764 7.38281,0 9.63867,30.90824 9.63867,-30.90824 7.38282,0 -14.03321,42.59764 z"
           inkscape:connector-curvature="0" />
        <path
           id="path3275-9-2-4-0"
           style="font-family:'Bahnschrift SemiBold';-inkscape-font-specification:'Bahnschrift SemiBold';letter-spacing:0px;fill:#455b65;fill-opacity:1"
           d="m 658.40826,986.03516 0,42.59764 -7.14843,0 0,-42.59764 z"
           inkscape:connector-curvature="0" />
        <path
           id="path3277-5-1-2-1"
           style="font-family:'Bahnschrift SemiBold';-inkscape-font-specification:'Bahnschrift SemiBold';letter-spacing:0px;fill:#455b65;fill-opacity:1"
           d="m 682.31451,1029.0723 c -3.10548,0 -5.79102,-0.6397 -8.05664,-1.919 -2.26563,-1.2793 -4.00879,-3.1054 -5.22949,-5.4785 -1.22071,-2.373 -1.83106,-5.2002 -1.83105,-8.4814 l 0,-11.6895 c -10e-6,-3.28121 0.61034,-6.11324 1.83105,-8.49609 1.2207,-2.38277 2.96386,-4.21382 5.22949,-5.49316 2.26562,-1.27926 4.95116,-1.9189 8.05664,-1.91895 2.57811,5e-5 4.90232,0.5518 6.97266,1.65528 2.07028,1.10355 3.79392,2.67582 5.1709,4.71679 1.37692,2.04105 2.3193,4.47757 2.82715,7.30957 l 0,0 -7.20703,0 0,0 c -0.35159,-1.40622 -0.90823,-2.61227 -1.66993,-3.61816 -0.76174,-1.00583 -1.66506,-1.78219 -2.70996,-2.3291 -1.04494,-0.54684 -2.17287,-0.82028 -3.38379,-0.82031 -2.44142,3e-5 -4.36525,0.8057 -5.77148,2.41699 -1.40626,1.61136 -2.10939,3.80374 -2.10938,6.57714 l 0,11.6895 c -10e-6,2.7539 0.70312,4.9316 2.10938,6.5332 1.40623,1.6015 3.33006,2.4023 5.77148,2.4023 1.81639,0 3.43748,-0.5322 4.86329,-1.5967 1.42575,-1.0644 2.39255,-2.583 2.90039,-4.5556 l 0,0 7.20703,0 0,0 c -0.50785,2.6953 -1.45511,5.0244 -2.8418,6.9873 -1.38675,1.9629 -3.11038,3.4716 -5.1709,4.5263 -2.06057,1.0547 -4.3799,1.5821 -6.95801,1.5821 z"
           inkscape:connector-curvature="0" />
        <path
           id="path3279-4-4-8-7"
           style="font-family:'Bahnschrift SemiBold';-inkscape-font-specification:'Bahnschrift SemiBold';letter-spacing:0px;fill:#455b65;fill-opacity:1"
           d="m 705.22467,1028.6328 0,-42.59764 7.00195,0 0,42.59764 z m 2.90039,0 0,-6.5625 25.04883,0 0,6.5625 z m 0,-17.8125 0,-6.709 21.82617,0 0,6.709 z m 0,-18.07616 0,-6.70898 25.04883,0 0,6.70898 z"
           inkscape:connector-curvature="0" />
      </g>
    </g>
  </g>
</svg>
