<?xml version="1.0" encoding="UTF-8" standalone="no"?>
<!-- Created with Inkscape (http://www.inkscape.org/) -->

<svg
   xmlns:dc="http://purl.org/dc/elements/1.1/"
   xmlns:cc="http://creativecommons.org/ns#"
   xmlns:rdf="http://www.w3.org/1999/02/22-rdf-syntax-ns#"
   xmlns:svg="http://www.w3.org/2000/svg"
   xmlns="http://www.w3.org/2000/svg"
   xmlns:sodipodi="http://sodipodi.sourceforge.net/DTD/sodipodi-0.dtd"
   xmlns:inkscape="http://www.inkscape.org/namespaces/inkscape"
   width="220"
   height="160"
   viewBox="0 0 220 160"
   id="svg4150"
   version="1.1"
   inkscape:version="0.91 r13725"
   sodipodi:docname="opony-sprzedaz.svg">
  <defs
     id="defs4152" />
  <sodipodi:namedview
     id="base"
     pagecolor="#ffffff"
     bordercolor="#666666"
     borderopacity="1.0"
     inkscape:pageopacity="0.0"
     inkscape:pageshadow="2"
     inkscape:zoom="0.7"
     inkscape:cx="-8.6997546"
     inkscape:cy="179.05318"
     inkscape:document-units="px"
     inkscape:current-layer="layer1"
     showgrid="false"
     units="px"
     width="220px"
     inkscape:window-width="1280"
     inkscape:window-height="961"
     inkscape:window-x="1912"
     inkscape:window-y="-8"
     inkscape:window-maximized="1" />
  <metadata
     id="metadata4155">
    <rdf:RDF>
      <cc:Work
         rdf:about="">
        <dc:format>image/svg+xml</dc:format>
        <dc:type
           rdf:resource="http://purl.org/dc/dcmitype/StillImage" />
        <dc:title></dc:title>
      </cc:Work>
    </rdf:RDF>
  </metadata>
  <g
     inkscape:label="Layer 1"
     inkscape:groupmode="layer"
     id="layer1"
     transform="translate(0,-892.36216)">
    <g
       id="g4725"
       transform="matrix(0.94492537,0,0,0.94492537,1.3335814,85.274982)">
      <path
         inkscape:export-ydpi="90"
         inkscape:export-xdpi="90"
         id="path4389"
         d="m 116.11976,883.79071 c -0.59628,0 -0.84347,1.928 -1.4375,1.9375 -6.38945,0.10168 -12.63837,0.75944 -18.718751,1.90625 -0.55361,0.10442 -1.4806,-1.70643 -2.03125,-1.59375 -7.16073,1.4653 -14.076141,3.6231 -20.656251,6.40625 -0.49235,0.20825 -0.0738,2.06607 -0.5625,2.28125 -5.459913,2.40429 -10.7045,5.24567 -15.65625,8.46875 -0.528,0.34367 -1.91583,-0.97744 -2.4375,-0.625 -5.85204,3.95357 -11.30472,8.46098 -16.28125,13.4375 -0.29683,0.29683 0.88718,1.73106 0.59375,2.03125 -4.311,4.41023 -8.2555,9.19849 -11.78125,14.28125 -0.25778,0.37168 -1.99669,-0.40629 -2.25,-0.0312 -3.95356,5.85204 -7.37309,12.10739 -10.15625,18.6875 -0.25468,0.60213 1.4942,1.57995 1.25,2.1875 -2.19752,5.46714 -3.94639,11.13948 -5.25,17 -0.13464,0.6053 -2.2816298,0.85973 -2.4062498,1.46875 -1.4653,7.16074 -2.21875,14.56233 -2.21875,22.15624 l 56.0878898,0 a 52.72047,52.72047 0 0 1 -0.0078,-0.2265 52.72047,52.72047 0 0 1 52.720692,-52.72081 52.72047,52.72047 0 0 1 52.7207,52.72071 52.72047,52.72047 0 0 1 -0.0117,0.2266 l 56.20899,0 c 0,-6.85852 -0.6427,-13.55158 -1.84375,-20.06254 -0.12879,-0.69817 2.01691,-1.40026 1.875,-2.09375 -1.4653,-7.16073 -3.62309,-14.07614 -6.40625,-20.65625 -0.13209,-0.31234 -1.89636,-0.002 -2.03125,-0.3125 -2.5335,-5.83794 -5.53561,-11.39609 -9,-16.65625 -0.23744,-0.36053 1.11656,-1.3612 0.875,-1.71875 -3.95356,-5.85204 -8.42973,-11.30473 -13.40625,-16.28125 -0.37227,-0.37226 -2.2162,0.61693 -2.59375,0.25 -4.23393,-4.11478 -8.80561,-7.91699 -13.65625,-11.3125 -0.49913,-0.34937 0.47377,-2.03375 -0.0312,-2.375 -5.85204,-3.95356 -12.10739,-7.34184 -18.6875,-10.125 -0.57672,-0.24393 -1.69955,1.23433 -2.28125,1 -5.44658,-2.19405 -11.09969,-3.94328 -16.9375,-5.25 -0.65233,-0.14601 -0.78085,-2.02188 -1.4375,-2.15625 -7.16074,-1.4653 -14.56233,-2.25 -22.15625,-2.25 z"
         style="opacity:1;fill:none;fill-opacity:1;stroke:#0a42af;stroke-width:3.20000005;stroke-miterlimit:4;stroke-dasharray:none;stroke-opacity:1"
         inkscape:connector-curvature="0" />
      <path
         inkscape:export-ydpi="90"
         inkscape:export-xdpi="90"
         inkscape:connector-curvature="0"
         id="path4387"
         d="m 114.99992,950.11883 a 43.546421,43.546421 0 0 0 -43.546881,43.54692 43.546421,43.546421 0 0 0 0.004,0.125 l 4.91015,0 a 38.638332,38.638332 0 0 1 -0.008,-0.2032 38.638332,38.638332 0 0 1 38.638671,-38.63865 38.638332,38.638332 0 0 1 38.63868,38.63865 38.638332,38.638332 0 0 1 -0.01,0.2032 l 4.9121,0 a 43.546421,43.546421 0 0 0 0.006,-0.125 43.546421,43.546421 0 0 0 -43.54491,-43.54692 z"
         style="opacity:1;fill:none;fill-opacity:1;stroke:#0a42af;stroke-width:3.20000005;stroke-miterlimit:4;stroke-dasharray:none;stroke-opacity:1" />
      <path
         inkscape:export-ydpi="90"
         inkscape:export-xdpi="90"
         inkscape:connector-curvature="0"
         id="path4385"
         d="m 114.99915,967.15707 a 5,5 0 0 1 5,5 5,5 0 0 1 -5,5 5,5 0 0 1 -5,-5 5,5 0 0 1 5,-5 z"
         style="opacity:1;fill:none;fill-opacity:1;stroke:#0a42af;stroke-width:3.20000005;stroke-miterlimit:4;stroke-dasharray:none;stroke-opacity:1" />
      <path
         inkscape:export-ydpi="90"
         inkscape:export-xdpi="90"
         inkscape:connector-curvature="0"
         id="path4383"
         d="m 94.284299,980.72738 a 5,5 0 0 1 5,5 5,5 0 0 1 -5,4.99997 5,5 0 0 1 -5,-4.99997 5,5 0 0 1 5,-5 z"
         style="opacity:1;fill:none;fill-opacity:1;stroke:#0a42af;stroke-width:3.20000005;stroke-miterlimit:4;stroke-dasharray:none;stroke-opacity:1" />
      <path
         inkscape:export-ydpi="90"
         inkscape:export-xdpi="90"
         inkscape:connector-curvature="0"
         id="path4100-5"
         d="m 135.71204,980.72738 a 5,5 0 0 1 5,5 5,5 0 0 1 -5,4.99997 5,5 0 0 1 -5,-4.99997 5,5 0 0 1 5,-5 z"
         style="opacity:1;fill:none;fill-opacity:1;stroke:#0a42af;stroke-width:3.20000005;stroke-miterlimit:4;stroke-dasharray:none;stroke-opacity:1" />
    </g>
  </g>
</svg>
